<svg xmlns="http://www.w3.org/2000/svg" xmlns:xlink="http://www.w3.org/1999/xlink" width="480" zoomAndPan="magnify" viewBox="0 0 360 359.999987" height="480" preserveAspectRatio="xMidYMid meet" version="1.2"><defs><clipPath id="10075c6667"><path d="M 186 109.453125 L 260 109.453125 L 260 250.453125 L 186 250.453125 Z M 186 109.453125 "/></clipPath><clipPath id="b2f9348a0d"><path d="M 100 109.453125 L 171 109.453125 L 171 250.453125 L 100 250.453125 Z M 100 109.453125 "/></clipPath></defs><g id="114278ece6"><rect x="0" width="360" y="0" height="359.999987" style="fill:#ffffff;fill-opacity:1;stroke:none;"/><rect x="0" width="360" y="0" height="359.999987" style="fill:#ffffff;fill-opacity:1;stroke:none;"/><path style=" stroke:none;fill-rule:nonzero;fill:#a7f2ff;fill-opacity:1;" d="M 170.574219 180.148438 C 170.574219 181.175781 170.472656 182.191406 170.273438 183.195312 C 170.074219 184.203125 169.777344 185.179688 169.382812 186.128906 C 168.992188 187.074219 168.511719 187.976562 167.941406 188.828125 C 167.371094 189.683594 166.722656 190.472656 165.996094 191.195312 C 165.273438 191.921875 164.484375 192.570312 163.628906 193.140625 C 162.777344 193.710938 161.878906 194.191406 160.929688 194.582031 C 159.980469 194.976562 159.003906 195.273438 158 195.472656 C 156.992188 195.671875 155.976562 195.773438 154.949219 195.773438 C 153.925781 195.773438 152.910156 195.671875 151.902344 195.472656 C 150.894531 195.273438 149.917969 194.976562 148.972656 194.582031 C 148.023438 194.191406 147.125 193.710938 146.269531 193.140625 C 145.417969 192.570312 144.628906 191.921875 143.902344 191.195312 C 143.179688 190.472656 142.53125 189.683594 141.960938 188.828125 C 141.390625 187.976562 140.910156 187.074219 140.515625 186.128906 C 140.125 185.179688 139.828125 184.203125 139.628906 183.195312 C 139.425781 182.191406 139.328125 181.175781 139.328125 180.148438 C 139.328125 179.125 139.425781 178.105469 139.628906 177.101562 C 139.828125 176.09375 140.125 175.117188 140.515625 174.171875 C 140.910156 173.222656 141.390625 172.320312 141.960938 171.46875 C 142.53125 170.617188 143.179688 169.828125 143.902344 169.101562 C 144.628906 168.375 145.417969 167.730469 146.269531 167.160156 C 147.125 166.589844 148.023438 166.109375 148.972656 165.714844 C 149.917969 165.324219 150.894531 165.027344 151.902344 164.824219 C 152.910156 164.625 153.925781 164.527344 154.949219 164.527344 C 155.976562 164.527344 156.992188 164.625 158 164.824219 C 159.003906 165.027344 159.980469 165.324219 160.929688 165.714844 C 161.878906 166.109375 162.777344 166.589844 163.628906 167.160156 C 164.484375 167.730469 165.273438 168.375 165.996094 169.101562 C 166.722656 169.828125 167.371094 170.617188 167.941406 171.46875 C 168.511719 172.320312 168.992188 173.222656 169.382812 174.171875 C 169.777344 175.117188 170.074219 176.09375 170.273438 177.101562 C 170.472656 178.105469 170.574219 179.125 170.574219 180.148438 Z M 170.574219 180.148438 "/><path style=" stroke:none;fill-rule:nonzero;fill:#a7f2ff;fill-opacity:1;" d="M 217.445312 180.148438 C 217.445312 181.175781 217.34375 182.191406 217.144531 183.195312 C 216.941406 184.203125 216.648438 185.179688 216.253906 186.128906 C 215.863281 187.074219 215.378906 187.976562 214.8125 188.828125 C 214.242188 189.683594 213.59375 190.472656 212.867188 191.195312 C 212.140625 191.921875 211.351562 192.570312 210.5 193.140625 C 209.648438 193.710938 208.746094 194.191406 207.800781 194.582031 C 206.851562 194.976562 205.875 195.273438 204.867188 195.472656 C 203.863281 195.671875 202.847656 195.773438 201.820312 195.773438 C 200.792969 195.773438 199.777344 195.671875 198.773438 195.472656 C 197.765625 195.273438 196.789062 194.976562 195.839844 194.582031 C 194.894531 194.191406 193.992188 193.710938 193.140625 193.140625 C 192.289062 192.570312 191.5 191.921875 190.773438 191.195312 C 190.046875 190.472656 189.398438 189.683594 188.828125 188.828125 C 188.261719 187.976562 187.777344 187.074219 187.386719 186.128906 C 186.992188 185.179688 186.699219 184.203125 186.496094 183.195312 C 186.296875 182.191406 186.195312 181.175781 186.195312 180.148438 C 186.195312 179.125 186.296875 178.105469 186.496094 177.101562 C 186.699219 176.09375 186.992188 175.117188 187.386719 174.171875 C 187.777344 173.222656 188.261719 172.320312 188.828125 171.46875 C 189.398438 170.617188 190.046875 169.828125 190.773438 169.101562 C 191.5 168.375 192.289062 167.730469 193.140625 167.160156 C 193.992188 166.589844 194.894531 166.109375 195.839844 165.714844 C 196.789062 165.324219 197.765625 165.027344 198.773438 164.824219 C 199.777344 164.625 200.792969 164.527344 201.820312 164.527344 C 202.847656 164.527344 203.863281 164.625 204.867188 164.824219 C 205.875 165.027344 206.851562 165.324219 207.800781 165.714844 C 208.746094 166.109375 209.648438 166.589844 210.5 167.160156 C 211.351562 167.730469 212.140625 168.375 212.867188 169.101562 C 213.59375 169.828125 214.242188 170.617188 214.8125 171.46875 C 215.378906 172.320312 215.863281 173.222656 216.253906 174.171875 C 216.648438 175.117188 216.941406 176.09375 217.144531 177.101562 C 217.34375 178.105469 217.445312 179.125 217.445312 180.148438 Z M 217.445312 180.148438 "/><path style=" stroke:none;fill-rule:nonzero;fill:#a7f2ff;fill-opacity:1;" d="M 213.539062 152.808594 C 212.808594 152.808594 212.089844 152.710938 211.390625 152.507812 C 185.472656 145.085938 171.289062 145.085938 145.382812 152.507812 C 144.886719 152.648438 144.386719 152.738281 143.875 152.78125 C 143.363281 152.824219 142.851562 152.816406 142.34375 152.757812 C 141.832031 152.699219 141.335938 152.59375 140.847656 152.433594 C 140.359375 152.277344 139.890625 152.074219 139.441406 151.828125 C 138.992188 151.578125 138.574219 151.289062 138.179688 150.957031 C 137.789062 150.625 137.433594 150.257812 137.117188 149.855469 C 136.796875 149.453125 136.519531 149.023438 136.285156 148.570312 C 136.050781 148.113281 135.863281 147.636719 135.722656 147.144531 C 135.582031 146.652344 135.488281 146.148438 135.449219 145.636719 C 135.40625 145.128906 135.414062 144.617188 135.472656 144.105469 C 135.53125 143.597656 135.636719 143.097656 135.792969 142.609375 C 135.953125 142.121094 136.152344 141.652344 136.402344 141.203125 C 136.652344 140.757812 136.941406 140.335938 137.273438 139.945312 C 137.605469 139.554688 137.972656 139.199219 138.375 138.878906 C 138.777344 138.558594 139.203125 138.285156 139.660156 138.050781 C 140.117188 137.816406 140.589844 137.625 141.085938 137.484375 C 169.667969 129.316406 187.09375 129.316406 215.6875 137.484375 C 216.136719 137.613281 216.570312 137.78125 216.988281 137.988281 C 217.40625 138.195312 217.804688 138.4375 218.179688 138.714844 C 218.558594 138.992188 218.90625 139.300781 219.226562 139.640625 C 219.546875 139.980469 219.832031 140.347656 220.089844 140.738281 C 220.34375 141.128906 220.5625 141.542969 220.742188 141.972656 C 220.921875 142.402344 221.0625 142.847656 221.164062 143.300781 C 221.265625 143.757812 221.328125 144.21875 221.34375 144.6875 C 221.363281 145.152344 221.339844 145.617188 221.273438 146.082031 C 221.210938 146.542969 221.105469 146.996094 220.957031 147.441406 C 220.8125 147.882812 220.628906 148.3125 220.40625 148.722656 C 220.183594 149.132812 219.925781 149.519531 219.632812 149.886719 C 219.339844 150.25 219.015625 150.585938 218.664062 150.890625 C 218.3125 151.199219 217.933594 151.472656 217.535156 151.710938 C 217.132812 151.949219 216.710938 152.148438 216.273438 152.3125 C 215.835938 152.476562 215.386719 152.601562 214.929688 152.683594 C 214.46875 152.765625 214.003906 152.808594 213.539062 152.808594 Z M 213.539062 152.808594 "/><path style=" stroke:none;fill-rule:nonzero;fill:#a7f2ff;fill-opacity:1;" d="M 178.386719 229.003906 C 164.359375 228.890625 150.625 226.828125 137.183594 222.8125 C 136.691406 222.671875 136.214844 222.484375 135.757812 222.25 C 135.304688 222.015625 134.875 221.738281 134.472656 221.417969 C 134.070312 221.097656 133.703125 220.746094 133.371094 220.351562 C 133.039062 219.960938 132.75 219.542969 132.5 219.09375 C 132.253906 218.644531 132.050781 218.175781 131.894531 217.6875 C 131.734375 217.199219 131.628906 216.699219 131.570312 216.191406 C 131.511719 215.679688 131.503906 215.171875 131.546875 214.660156 C 131.585938 214.148438 131.679688 213.644531 131.820312 213.152344 C 131.960938 212.660156 132.148438 212.183594 132.382812 211.730469 C 132.617188 211.273438 132.894531 210.84375 133.214844 210.441406 C 133.53125 210.039062 133.886719 209.675781 134.28125 209.34375 C 134.671875 209.011719 135.089844 208.71875 135.539062 208.472656 C 135.988281 208.222656 136.457031 208.019531 136.945312 207.863281 C 137.433594 207.707031 137.933594 207.597656 138.441406 207.539062 C 138.949219 207.480469 139.460938 207.472656 139.972656 207.515625 C 140.484375 207.558594 140.984375 207.648438 141.480469 207.789062 C 147.457031 209.628906 153.542969 211.011719 159.726562 211.941406 C 165.914062 212.871094 172.132812 213.335938 178.390625 213.335938 C 184.644531 213.335938 190.867188 212.871094 197.050781 211.941406 C 203.238281 211.011719 209.320312 209.628906 215.300781 207.789062 C 215.792969 207.648438 216.292969 207.558594 216.804688 207.515625 C 217.316406 207.472656 217.828125 207.484375 218.335938 207.542969 C 218.847656 207.601562 219.34375 207.707031 219.832031 207.863281 C 220.320312 208.019531 220.789062 208.222656 221.238281 208.472656 C 221.6875 208.722656 222.105469 209.011719 222.496094 209.34375 C 222.886719 209.675781 223.242188 210.042969 223.5625 210.445312 C 223.882812 210.84375 224.15625 211.273438 224.390625 211.730469 C 224.628906 212.1875 224.816406 212.660156 224.957031 213.152344 C 225.097656 213.648438 225.1875 214.148438 225.230469 214.660156 C 225.273438 215.171875 225.265625 215.679688 225.207031 216.191406 C 225.148438 216.699219 225.039062 217.199219 224.882812 217.6875 C 224.726562 218.175781 224.523438 218.644531 224.277344 219.09375 C 224.027344 219.542969 223.738281 219.960938 223.40625 220.351562 C 223.074219 220.742188 222.707031 221.097656 222.304688 221.417969 C 221.902344 221.738281 221.476562 222.015625 221.019531 222.25 C 220.5625 222.484375 220.089844 222.671875 219.59375 222.8125 C 206.152344 226.828125 192.414062 228.890625 178.386719 229.003906 Z M 178.386719 229.003906 "/><g clip-rule="nonzero" clip-path="url(#10075c6667)"><path style=" stroke:none;fill-rule:nonzero;fill:#a7f2ff;fill-opacity:1;" d="M 221.347656 250.453125 C 211.289062 250.453125 197.914062 229.015625 197.914062 219.207031 C 197.914062 218.695312 197.964844 218.1875 198.066406 217.683594 C 198.164062 217.179688 198.3125 216.691406 198.507812 216.21875 C 198.707031 215.742188 198.945312 215.292969 199.230469 214.867188 C 199.515625 214.441406 199.839844 214.046875 200.203125 213.683594 C 200.566406 213.320312 200.960938 212.996094 201.386719 212.710938 C 201.8125 212.425781 202.261719 212.1875 202.738281 211.988281 C 203.210938 211.792969 203.699219 211.644531 204.203125 211.546875 C 204.707031 211.445312 205.214844 211.394531 205.726562 211.394531 C 206.238281 211.394531 206.746094 211.445312 207.25 211.546875 C 207.753906 211.644531 208.242188 211.792969 208.714844 211.988281 C 209.1875 212.1875 209.640625 212.425781 210.066406 212.710938 C 210.492188 212.996094 210.886719 213.320312 211.25 213.683594 C 211.613281 214.046875 211.9375 214.441406 212.222656 214.867188 C 212.507812 215.292969 212.746094 215.742188 212.941406 216.21875 C 213.140625 216.691406 213.289062 217.179688 213.386719 217.683594 C 213.488281 218.1875 213.539062 218.695312 213.539062 219.207031 C 213.539062 222.464844 219.441406 231.648438 222.871094 234.691406 C 229.539062 233.488281 237.109375 224.746094 241.550781 216.019531 C 245.910156 204.554688 244.234375 174.449219 230.460938 134.429688 C 223.160156 130.03125 215.28125 127.277344 206.828125 126.175781 L 201.261719 140.085938 C 201.070312 140.5625 200.835938 141.015625 200.554688 141.445312 C 200.277344 141.875 199.957031 142.273438 199.597656 142.640625 C 199.242188 143.007812 198.851562 143.335938 198.425781 143.628906 C 198.003906 143.917969 197.558594 144.164062 197.085938 144.367188 C 196.613281 144.566406 196.128906 144.722656 195.625 144.828125 C 195.125 144.933594 194.617188 144.992188 194.101562 144.996094 C 193.589844 145.003906 193.082031 144.957031 192.578125 144.863281 C 192.074219 144.769531 191.582031 144.628906 191.105469 144.4375 C 190.628906 144.246094 190.175781 144.011719 189.746094 143.734375 C 189.316406 143.453125 188.917969 143.132812 188.550781 142.777344 C 188.183594 142.417969 187.855469 142.027344 187.566406 141.601562 C 187.277344 141.179688 187.03125 140.734375 186.828125 140.261719 C 186.625 139.789062 186.472656 139.304688 186.367188 138.800781 C 186.257812 138.300781 186.203125 137.792969 186.195312 137.28125 C 186.191406 136.765625 186.234375 136.257812 186.328125 135.753906 C 186.421875 135.25 186.566406 134.757812 186.753906 134.28125 L 194.566406 114.753906 C 194.882812 113.964844 195.316406 113.242188 195.867188 112.59375 C 196.421875 111.945312 197.0625 111.402344 197.789062 110.964844 C 198.519531 110.523438 199.300781 110.210938 200.132812 110.027344 C 200.960938 109.84375 201.800781 109.796875 202.648438 109.886719 C 209.574219 110.339844 216.324219 111.671875 222.898438 113.886719 C 229.472656 116.105469 235.652344 119.128906 241.4375 122.964844 C 242.816406 123.921875 243.78125 125.191406 244.339844 126.773438 C 258.5 166.90625 263.054688 204.324219 255.941406 222.109375 C 255.859375 222.308594 255.769531 222.5 255.675781 222.703125 C 248.964844 236.121094 236.417969 250.453125 221.347656 250.453125 Z M 223.757812 235.371094 Z M 223.757812 235.371094 "/></g><g clip-rule="nonzero" clip-path="url(#b2f9348a0d)"><path style=" stroke:none;fill-rule:nonzero;fill:#a7f2ff;fill-opacity:1;" d="M 136.734375 250.453125 C 122.140625 250.453125 110.070312 236.050781 103.644531 222.566406 C 103.554688 222.378906 103.472656 222.175781 103.398438 221.988281 C 96.648438 204.273438 100.988281 166.949219 114.445312 126.886719 C 114.972656 125.316406 115.90625 124.046875 117.238281 123.070312 C 122.664062 119.226562 128.503906 116.1875 134.765625 113.949219 C 141.023438 111.710938 147.46875 110.359375 154.097656 109.890625 C 154.949219 109.796875 155.789062 109.84375 156.621094 110.023438 C 157.457031 110.207031 158.238281 110.519531 158.96875 110.957031 C 159.703125 111.398438 160.34375 111.941406 160.898438 112.589844 C 161.453125 113.242188 161.886719 113.960938 162.203125 114.753906 L 170.015625 134.28125 C 170.207031 134.757812 170.347656 135.25 170.441406 135.753906 C 170.535156 136.257812 170.578125 136.765625 170.574219 137.28125 C 170.566406 137.792969 170.511719 138.300781 170.40625 138.800781 C 170.300781 139.304688 170.144531 139.789062 169.941406 140.261719 C 169.742188 140.734375 169.496094 141.179688 169.203125 141.601562 C 168.914062 142.027344 168.585938 142.417969 168.21875 142.777344 C 167.851562 143.132812 167.453125 143.453125 167.023438 143.734375 C 166.59375 144.011719 166.140625 144.246094 165.664062 144.4375 C 165.1875 144.628906 164.699219 144.769531 164.195312 144.863281 C 163.6875 144.957031 163.179688 145.003906 162.667969 144.996094 C 162.15625 144.992188 161.648438 144.933594 161.144531 144.828125 C 160.644531 144.722656 160.15625 144.566406 159.683594 144.367188 C 159.214844 144.164062 158.765625 143.917969 158.34375 143.628906 C 157.921875 143.335938 157.53125 143.007812 157.171875 142.640625 C 156.8125 142.273438 156.496094 141.875 156.214844 141.445312 C 155.933594 141.015625 155.699219 140.5625 155.507812 140.085938 L 149.957031 126.210938 C 142.199219 127.332031 135.027344 130.03125 128.449219 134.296875 C 115.300781 174.417969 113.71875 204.632812 117.902344 216.148438 C 122.027344 224.664062 128.933594 233.195312 135.019531 234.621094 C 136.988281 232.417969 138.667969 230.015625 140.054688 227.410156 C 141.445312 224.804688 142.503906 222.070312 143.234375 219.207031 C 143.234375 218.695312 143.28125 218.1875 143.382812 217.683594 C 143.484375 217.179688 143.632812 216.691406 143.828125 216.21875 C 144.023438 215.742188 144.265625 215.292969 144.550781 214.867188 C 144.835938 214.441406 145.160156 214.046875 145.519531 213.683594 C 145.882812 213.320312 146.277344 212.996094 146.703125 212.710938 C 147.132812 212.425781 147.582031 212.1875 148.054688 211.988281 C 148.527344 211.792969 149.019531 211.644531 149.519531 211.546875 C 150.023438 211.445312 150.53125 211.394531 151.042969 211.394531 C 151.558594 211.394531 152.066406 211.445312 152.570312 211.546875 C 153.070312 211.644531 153.558594 211.792969 154.035156 211.988281 C 154.507812 212.1875 154.957031 212.425781 155.382812 212.710938 C 155.8125 212.996094 156.207031 213.320312 156.566406 213.683594 C 156.929688 214.046875 157.253906 214.441406 157.539062 214.867188 C 157.824219 215.292969 158.066406 215.742188 158.261719 216.21875 C 158.457031 216.691406 158.605469 217.179688 158.707031 217.683594 C 158.804688 218.1875 158.855469 218.695312 158.855469 219.207031 C 158.511719 222.59375 157.75 225.882812 156.566406 229.078125 C 155.382812 232.269531 153.816406 235.261719 151.867188 238.050781 C 143.964844 250.453125 138.710938 250.453125 136.734375 250.453125 Z M 136.734375 250.453125 "/></g></g></svg>