<svg xmlns="http://www.w3.org/2000/svg" xmlns:xlink="http://www.w3.org/1999/xlink" width="480" zoomAndPan="magnify" viewBox="0 0 360 359.999987" height="480" preserveAspectRatio="xMidYMid meet" version="1.2"><defs><clipPath id="f1190009f1"><path d="M 108 109.351562 L 252 109.351562 L 252 250.351562 L 108 250.351562 Z M 108 109.351562 "/></clipPath></defs><g id="9d2564075d"><rect x="0" width="360" y="0" height="359.999987" style="fill:#ffffff;fill-opacity:1;stroke:none;"/><rect x="0" width="360" y="0" height="359.999987" style="fill:#ffffff;fill-opacity:1;stroke:none;"/><g clip-rule="nonzero" clip-path="url(#f1190009f1)"><path style=" stroke:none;fill-rule:nonzero;fill:#a7f2ff;fill-opacity:1;" d="M 233.121094 144.652344 L 250.527344 159.050781 L 250.535156 159.054688 L 250.570312 159.082031 L 250.59375 159.101562 L 250.601562 159.113281 L 250.636719 159.140625 L 250.652344 159.152344 L 250.707031 159.207031 L 250.734375 159.230469 L 250.765625 159.257812 L 250.765625 159.261719 L 250.796875 159.292969 L 250.816406 159.316406 L 250.824219 159.320312 L 250.855469 159.351562 L 250.871094 159.371094 L 250.886719 159.386719 L 250.914062 159.417969 L 250.925781 159.429688 L 250.941406 159.449219 L 250.96875 159.480469 L 250.976562 159.488281 L 250.996094 159.515625 L 251.023438 159.550781 L 251.050781 159.582031 L 251.074219 159.613281 L 251.074219 159.617188 L 251.101562 159.648438 L 251.117188 159.675781 L 251.125 159.683594 L 251.148438 159.71875 L 251.160156 159.742188 L 251.171875 159.753906 L 251.195312 159.789062 L 251.203125 159.804688 L 251.21875 159.824219 L 251.238281 159.859375 L 251.242188 159.871094 L 251.261719 159.898438 L 251.320312 160.003906 L 251.320312 160.007812 L 251.339844 160.042969 L 251.355469 160.070312 L 251.359375 160.082031 L 251.386719 160.136719 L 251.410156 160.195312 L 251.445312 160.269531 L 251.449219 160.277344 L 251.460938 160.308594 L 251.476562 160.34375 L 251.476562 160.347656 L 251.488281 160.386719 L 251.5 160.414062 L 251.503906 160.425781 L 251.527344 160.503906 L 251.542969 160.542969 L 251.546875 160.558594 L 251.554688 160.582031 L 251.566406 160.621094 L 251.566406 160.628906 L 251.574219 160.664062 L 251.597656 160.742188 L 251.601562 160.773438 L 251.605469 160.78125 L 251.613281 160.824219 L 251.628906 160.902344 L 251.632812 160.917969 L 251.636719 160.945312 L 251.640625 160.984375 L 251.644531 160.992188 L 251.644531 161.023438 L 251.652344 161.0625 L 251.652344 161.066406 L 251.65625 161.105469 L 251.660156 161.136719 L 251.660156 161.148438 L 251.664062 161.191406 L 251.667969 161.210938 L 251.667969 161.230469 L 251.671875 161.269531 L 251.671875 161.355469 L 251.675781 161.394531 L 251.675781 161.433594 L 251.679688 235.394531 C 251.679688 239.503906 249.996094 243.242188 247.289062 245.953125 C 244.578125 248.660156 240.839844 250.34375 236.730469 250.34375 L 123 250.34375 C 118.890625 250.34375 115.148438 248.660156 112.441406 245.953125 C 109.734375 243.246094 108.050781 239.503906 108.050781 235.394531 L 108.058594 161.648438 C 108.007812 160.894531 108.234375 160.117188 108.753906 159.488281 C 108.925781 159.28125 109.121094 159.097656 109.335938 158.949219 L 126.605469 144.65625 L 126.605469 126.347656 C 126.605469 124.660156 127.976562 123.289062 129.664062 123.289062 L 152.445312 123.289062 L 161.035156 116.191406 C 166.546875 111.628906 173.207031 109.347656 179.863281 109.347656 C 186.519531 109.347656 193.183594 111.628906 198.695312 116.191406 L 207.285156 123.289062 L 230.0625 123.289062 C 231.75 123.289062 233.121094 124.660156 233.121094 126.347656 Z M 205.855469 162.390625 L 205.855469 169.246094 C 205.855469 174.6875 201.386719 179.15625 195.941406 179.15625 C 191.777344 179.15625 188.050781 176.496094 186.632812 172.628906 C 184.6875 173.917969 182.359375 174.667969 179.863281 174.667969 C 173.09375 174.667969 167.585938 169.15625 167.585938 162.390625 C 167.585938 155.628906 173.101562 150.109375 179.863281 150.109375 C 186.628906 150.109375 192.144531 155.628906 192.144531 162.390625 L 192.144531 169.246094 C 192.144531 171.34375 193.84375 173.042969 195.941406 173.042969 C 198.03125 173.042969 199.742188 171.335938 199.742188 169.246094 L 199.742188 162.390625 C 199.742188 151.40625 190.847656 142.511719 179.863281 142.511719 C 168.882812 142.511719 159.988281 151.40625 159.988281 162.390625 C 159.988281 173.375 168.875 182.265625 179.863281 182.265625 C 182.644531 182.265625 185.3125 181.71875 187.859375 180.597656 C 189.398438 179.917969 191.203125 180.621094 191.878906 182.160156 C 192.558594 183.703125 191.855469 185.507812 190.316406 186.183594 C 187.042969 187.621094 183.4375 188.378906 179.863281 188.378906 C 165.523438 188.378906 153.875 176.730469 153.875 162.390625 C 153.875 148.039062 165.515625 136.398438 179.863281 136.398438 C 194.214844 136.398438 205.855469 148.039062 205.855469 162.390625 Z M 179.863281 156.226562 C 176.445312 156.226562 173.699219 158.96875 173.699219 162.390625 C 173.699219 165.800781 176.449219 168.554688 179.863281 168.554688 C 181.574219 168.554688 183.121094 167.867188 184.226562 166.761719 C 185.324219 165.664062 186.007812 164.148438 186.03125 162.46875 C 186.03125 159.003906 183.355469 156.226562 179.863281 156.226562 Z M 126.605469 152.574219 L 115.894531 161.433594 L 126.605469 170.296875 Z M 132.722656 175.351562 L 163.21875 200.570312 C 168.261719 197.109375 174.066406 195.375 179.863281 195.375 C 185.664062 195.375 191.464844 197.109375 196.511719 200.570312 L 227.007812 175.351562 L 227.007812 129.402344 L 132.722656 129.402344 Z M 233.121094 170.292969 L 243.832031 161.433594 L 233.121094 152.574219 Z M 232.140625 179.023438 C 232.0625 179.097656 231.976562 179.167969 231.890625 179.234375 L 201.398438 204.449219 L 244.300781 239.929688 C 245.105469 238.601562 245.566406 237.046875 245.566406 235.394531 L 245.566406 167.921875 Z M 114.148438 167.914062 L 114.152344 235.394531 C 114.160156 237.050781 114.625 238.601562 115.425781 239.929688 L 158.332031 204.449219 L 127.828125 179.226562 L 127.597656 179.035156 Z M 120.3125 243.808594 C 121.164062 244.082031 122.066406 244.230469 123 244.230469 L 236.730469 244.230469 C 237.664062 244.230469 238.566406 244.082031 239.414062 243.808594 L 194.804688 206.921875 C 190.429688 203.300781 185.144531 201.488281 179.863281 201.488281 C 174.585938 201.488281 169.300781 203.300781 164.921875 206.921875 Z M 164.925781 120.894531 L 162.027344 123.289062 L 197.703125 123.289062 L 194.804688 120.894531 C 190.429688 117.273438 185.144531 115.460938 179.863281 115.460938 C 174.585938 115.460938 169.300781 117.273438 164.925781 120.894531 Z M 164.925781 120.894531 "/></g></g></svg>