<svg xmlns="http://www.w3.org/2000/svg" xmlns:xlink="http://www.w3.org/1999/xlink" width="480" zoomAndPan="magnify" viewBox="0 0 360 359.999987" height="480" preserveAspectRatio="xMidYMid meet" version="1.2"><g id="39fc895bda"><rect x="0" width="360" y="0" height="359.999987" style="fill:#ffffff;fill-opacity:1;stroke:none;"/><rect x="0" width="360" y="0" height="359.999987" style="fill:#ffffff;fill-opacity:1;stroke:none;"/><path style=" stroke:none;fill-rule:nonzero;fill:#a7f2ff;fill-opacity:1;" d="M 217.050781 252 L 143.332031 252 C 123.851562 252 108.191406 236.339844 108.191406 216.859375 L 108.191406 143.140625 C 108.191406 123.660156 123.851562 108 143.332031 108 L 216.667969 108 C 236.148438 108 251.808594 123.660156 251.808594 143.140625 L 251.808594 216.476562 C 251.808594 235.957031 236.148438 251.617188 216.667969 251.617188 Z M 143.332031 119.457031 C 130.34375 119.457031 119.648438 130.152344 119.648438 143.140625 L 119.648438 216.476562 C 119.648438 229.464844 130.34375 240.160156 143.332031 240.160156 L 216.667969 240.160156 C 229.65625 240.160156 240.351562 229.464844 240.351562 216.476562 L 240.351562 143.140625 C 240.351562 130.152344 229.65625 119.457031 216.667969 119.457031 Z M 143.332031 119.457031 "/><path style=" stroke:none;fill-rule:nonzero;fill:#a7f2ff;fill-opacity:1;" d="M 180.382812 226.410156 C 155.171875 226.410156 134.929688 206.164062 134.929688 180.953125 C 134.929688 155.746094 155.171875 135.5 180.382812 135.5 C 205.589844 135.5 225.835938 155.746094 225.835938 180.953125 C 225.835938 206.164062 205.589844 226.410156 180.382812 226.410156 Z M 180.382812 146.578125 C 161.285156 146.578125 146.003906 161.855469 146.003906 180.953125 C 146.003906 200.054688 161.285156 215.332031 180.382812 215.332031 C 199.480469 215.332031 214.757812 200.054688 214.757812 180.953125 C 214.757812 161.855469 199.480469 146.578125 180.382812 146.578125 Z M 180.382812 146.578125 "/><path style=" stroke:none;fill-rule:nonzero;fill:#a7f2ff;fill-opacity:1;" d="M 180.382812 201.582031 C 168.921875 201.582031 159.757812 192.414062 159.757812 180.953125 C 159.757812 169.496094 168.921875 160.328125 180.382812 160.328125 C 191.839844 160.328125 201.007812 169.496094 201.007812 180.953125 C 201.007812 192.414062 191.839844 201.582031 180.382812 201.582031 Z M 180.382812 171.789062 C 175.417969 171.789062 171.214844 175.988281 171.214844 180.953125 C 171.214844 185.921875 175.417969 190.121094 180.382812 190.121094 C 185.347656 190.121094 189.550781 185.921875 189.550781 180.953125 C 189.550781 175.988281 185.347656 171.789062 180.382812 171.789062 Z M 180.382812 171.789062 "/><path style=" stroke:none;fill-rule:nonzero;fill:#a7f2ff;fill-opacity:1;" d="M 229.65625 138.175781 C 229.65625 138.675781 229.605469 139.171875 229.507812 139.664062 C 229.410156 140.15625 229.265625 140.636719 229.074219 141.097656 C 228.882812 141.5625 228.644531 142.003906 228.367188 142.417969 C 228.089844 142.835938 227.773438 143.222656 227.417969 143.578125 C 227.0625 143.929688 226.675781 144.25 226.261719 144.527344 C 225.84375 144.804688 225.402344 145.039062 224.9375 145.234375 C 224.476562 145.425781 224 145.570312 223.507812 145.667969 C 223.015625 145.765625 222.515625 145.8125 222.015625 145.8125 C 221.515625 145.8125 221.015625 145.765625 220.527344 145.667969 C 220.035156 145.570312 219.554688 145.425781 219.09375 145.234375 C 218.628906 145.039062 218.1875 144.804688 217.773438 144.527344 C 217.355469 144.25 216.96875 143.929688 216.613281 143.578125 C 216.257812 143.222656 215.941406 142.835938 215.664062 142.417969 C 215.386719 142.003906 215.148438 141.5625 214.957031 141.097656 C 214.765625 140.636719 214.621094 140.15625 214.523438 139.664062 C 214.425781 139.171875 214.375 138.675781 214.375 138.175781 C 214.375 137.671875 214.425781 137.175781 214.523438 136.683594 C 214.621094 136.191406 214.765625 135.714844 214.957031 135.25 C 215.148438 134.789062 215.386719 134.347656 215.664062 133.929688 C 215.941406 133.515625 216.257812 133.128906 216.613281 132.773438 C 216.96875 132.417969 217.355469 132.101562 217.773438 131.824219 C 218.1875 131.542969 218.628906 131.308594 219.09375 131.117188 C 219.554688 130.925781 220.035156 130.78125 220.527344 130.683594 C 221.015625 130.585938 221.515625 130.535156 222.015625 130.535156 C 222.515625 130.535156 223.015625 130.585938 223.507812 130.683594 C 224 130.78125 224.476562 130.925781 224.9375 131.117188 C 225.402344 131.308594 225.84375 131.542969 226.261719 131.824219 C 226.675781 132.101562 227.0625 132.417969 227.417969 132.773438 C 227.773438 133.128906 228.089844 133.515625 228.367188 133.929688 C 228.644531 134.347656 228.882812 134.789062 229.074219 135.25 C 229.265625 135.714844 229.410156 136.191406 229.507812 136.683594 C 229.605469 137.175781 229.65625 137.671875 229.65625 138.175781 Z M 229.65625 138.175781 "/></g></svg>