<svg xmlns="http://www.w3.org/2000/svg" xmlns:xlink="http://www.w3.org/1999/xlink" width="480" zoomAndPan="magnify" viewBox="0 0 360 359.999987" height="480" preserveAspectRatio="xMidYMid meet" version="1.2"><defs><clipPath id="fc5d356120"><path d="M 108.179688 108 L 252 108 L 252 252 L 108.179688 252 Z M 108.179688 108 "/></clipPath></defs><g id="c325f0ee1d"><g clip-rule="nonzero" clip-path="url(#fc5d356120)"><path style=" stroke:none;fill-rule:nonzero;fill:#a7f2ff;fill-opacity:1;" d="M 179.949219 108.132812 C 140.066406 108.265625 108.1875 140.695312 108.710938 180.574219 C 108.757812 184.589844 109.140625 188.570312 109.863281 192.519531 C 110.582031 196.46875 111.628906 200.332031 113.003906 204.101562 C 114.378906 207.875 116.058594 211.503906 118.050781 214.992188 C 120.039062 218.480469 122.304688 221.777344 124.851562 224.878906 C 125.253906 225.371094 125.574219 225.914062 125.8125 226.5 C 126.050781 227.089844 126.199219 227.699219 126.253906 228.332031 C 126.308594 228.964844 126.269531 229.589844 126.136719 230.210938 C 126.003906 230.832031 125.78125 231.421875 125.472656 231.976562 L 119.3125 243.011719 C 117.605469 246.070312 120.386719 249.6875 123.78125 248.824219 L 144.640625 243.511719 C 146.144531 243.132812 147.589844 243.28125 148.984375 243.957031 C 153.597656 246.199219 158.394531 247.921875 163.378906 249.125 C 168.363281 250.328125 173.421875 250.984375 178.546875 251.09375 C 218.644531 252 251.558594 219.960938 251.683594 179.851562 C 251.808594 140.179688 219.621094 107.996094 179.949219 108.132812 Z M 180.195312 242.304688 C 178.140625 242.304688 176.09375 242.203125 174.050781 242 C 172.007812 241.800781 169.980469 241.5 167.964844 241.097656 C 165.953125 240.699219 163.964844 240.199219 162 239.605469 C 160.035156 239.007812 158.105469 238.316406 156.207031 237.53125 C 154.308594 236.746094 152.457031 235.871094 150.644531 234.902344 C 148.835938 233.933594 147.078125 232.878906 145.371094 231.738281 C 143.664062 230.601562 142.015625 229.378906 140.429688 228.074219 C 138.84375 226.773438 137.324219 225.398438 135.871094 223.945312 C 134.417969 222.492188 133.042969 220.972656 131.742188 219.386719 C 130.4375 217.800781 129.214844 216.152344 128.078125 214.445312 C 126.9375 212.738281 125.882812 210.980469 124.914062 209.171875 C 123.945312 207.359375 123.070312 205.507812 122.285156 203.609375 C 121.5 201.710938 120.808594 199.78125 120.210938 197.816406 C 119.617188 195.851562 119.117188 193.863281 118.714844 191.851562 C 118.316406 189.835938 118.015625 187.808594 117.8125 185.765625 C 117.613281 183.722656 117.511719 181.675781 117.511719 179.621094 C 117.511719 145.003906 145.578125 116.941406 180.195312 116.941406 C 214.679688 116.941406 242.65625 144.785156 242.875 179.21875 C 243.09375 213.769531 214.746094 242.304688 180.195312 242.304688 Z M 180.195312 242.304688 "/></g><path style=" stroke:none;fill-rule:nonzero;fill:#a7f2ff;fill-opacity:1;" d="M 168.992188 149.148438 L 169.019531 149.207031 L 172.757812 156.621094 C 173.164062 157.421875 173.429688 158.269531 173.558594 159.160156 C 173.691406 160.046875 173.675781 160.933594 173.519531 161.820312 C 173.359375 162.707031 173.066406 163.542969 172.632812 164.332031 C 172.203125 165.121094 171.660156 165.820312 171.003906 166.433594 C 170.347656 167.042969 169.804688 167.738281 169.375 168.523438 C 168.945312 169.304688 168.648438 170.136719 168.488281 171.015625 C 168.328125 171.894531 168.308594 172.777344 168.433594 173.660156 C 168.558594 174.546875 168.816406 175.390625 169.214844 176.191406 C 171.460938 180.695312 175.347656 186.910156 181.28125 191.390625 C 181.945312 191.894531 182.671875 192.292969 183.453125 192.578125 C 184.238281 192.867188 185.046875 193.03125 185.882812 193.074219 C 186.714844 193.117188 187.539062 193.039062 188.347656 192.835938 C 189.15625 192.628906 189.917969 192.3125 190.632812 191.878906 L 193.039062 190.414062 C 194.136719 189.75 195.320312 189.355469 196.59375 189.238281 C 197.871094 189.121094 199.105469 189.289062 200.304688 189.746094 L 209.875 193.382812 C 210.382812 193.578125 210.871094 193.820312 211.332031 194.109375 C 211.792969 194.398438 212.222656 194.730469 212.621094 195.105469 C 213.015625 195.476562 213.371094 195.886719 213.6875 196.332031 C 214.003906 196.773438 214.273438 197.246094 214.496094 197.742188 C 214.71875 198.242188 214.894531 198.753906 215.015625 199.285156 C 215.136719 199.816406 215.207031 200.355469 215.222656 200.902344 C 215.238281 201.445312 215.199219 201.988281 215.109375 202.523438 C 215.019531 203.0625 214.878906 203.585938 214.683594 204.09375 C 214.574219 204.386719 214.445312 204.671875 214.300781 204.949219 L 211.648438 210.089844 C 211.433594 210.507812 211.1875 210.902344 210.90625 211.273438 C 210.625 211.648438 210.3125 211.996094 209.972656 212.316406 C 209.632812 212.640625 209.269531 212.929688 208.878906 213.1875 C 208.488281 213.449219 208.082031 213.671875 207.65625 213.863281 C 207.226562 214.054688 206.789062 214.207031 206.335938 214.324219 C 205.882812 214.441406 205.421875 214.519531 204.953125 214.558594 C 204.488281 214.597656 204.023438 214.59375 203.554688 214.554688 C 203.089844 214.515625 202.628906 214.4375 202.179688 214.320312 C 187.148438 210.429688 151.328125 196.914062 148.441406 156.042969 C 148.382812 155.230469 148.445312 154.425781 148.621094 153.632812 C 148.800781 152.839844 149.089844 152.089844 149.488281 151.382812 C 149.886719 150.671875 150.378906 150.035156 150.964844 149.472656 C 151.550781 148.90625 152.207031 148.4375 152.929688 148.066406 L 157.808594 145.558594 C 158.292969 145.3125 158.796875 145.109375 159.324219 144.960938 C 159.847656 144.8125 160.382812 144.714844 160.925781 144.667969 C 161.46875 144.625 162.011719 144.632812 162.550781 144.695312 C 163.09375 144.757812 163.625 144.871094 164.144531 145.039062 C 164.664062 145.203125 165.160156 145.421875 165.636719 145.683594 C 166.113281 145.949219 166.558594 146.257812 166.976562 146.609375 C 167.390625 146.964844 167.769531 147.351562 168.109375 147.78125 C 168.449219 148.207031 168.742188 148.664062 168.992188 149.148438 Z M 168.992188 149.148438 "/></g></svg>